<?xml version="1.0" encoding="iso-8859-1"?>
<!-- Generator: Adobe Illustrator 19.0.0, SVG Export Plug-In . SVG Version: 6.00 Build 0)  -->
<svg version="1.1" id="Layer_1" xmlns="http://www.w3.org/2000/svg" xmlns:xlink="http://www.w3.org/1999/xlink" x="0px" y="0px"
	 viewBox="0 0 512 512" style="enable-background:new 0 0 512 512;" xml:space="preserve">
<path style="fill:#E60120;" d="M7.976,201.659v-23.87c0-2.597,2.106-4.702,4.702-4.702h133.415c2.597,0,4.702,2.106,4.702,4.702
	v59.026c0,2.597-2.106,4.702-4.702,4.702H12.678c-2.597,0-4.702-2.106-4.702-4.702v-8.305V201.659z"/>
<rect x="26.053" y="191.169" style="fill:#FB0125;" width="99.035" height="32.275"/>
<path style="fill:#CC111E;" d="M146.092,173.086h-25.709c2.597,0,4.702,2.106,4.702,4.702v59.026c0,2.597-2.106,4.702-4.702,4.702
	h25.709c2.597,0,4.702-2.106,4.702-4.702v-59.026C150.794,175.192,148.689,173.086,146.092,173.086z"/>
<path style="fill:#E60120;" d="M322.707,241.518H189.292c-2.597,0-4.702-2.106-4.702-4.702v-59.026c0-2.597,2.106-4.702,4.702-4.702
	h133.415c2.597,0,4.702,2.106,4.702,4.702v59.026C327.409,239.412,325.304,241.518,322.707,241.518z"/>
<rect x="202.663" y="191.169" style="fill:#FB0125;" width="99.109" height="32.275"/>
<path style="fill:#CC111E;" d="M322.707,173.086h-25.703c2.597,0,4.702,2.106,4.702,4.702v59.026c0,2.597-2.106,4.702-4.702,4.702
	h25.703c2.597,0,4.702-2.106,4.702-4.702v-59.026C327.409,175.192,325.304,173.086,322.707,173.086z"/>
<path style="fill:#E60120;" d="M499.322,241.518H365.908c-2.597,0-4.702-2.106-4.702-4.702v-59.026c0-2.597,2.106-4.702,4.702-4.702
	h133.415c2.597,0,4.702,2.106,4.702,4.702v59.026C504.024,239.412,501.919,241.518,499.322,241.518z"/>
<rect x="379.284" y="191.169" style="fill:#FB0125;" width="98.865" height="32.275"/>
<path style="fill:#E60120;" d="M146.092,438.301H12.678c-2.597,0-4.702-2.106-4.702-4.702v-59.026c0-2.597,2.106-4.702,4.702-4.702
	h133.415c2.597,0,4.702,2.106,4.702,4.702v59.026C150.794,436.197,148.689,438.301,146.092,438.301z"/>
<rect x="26.053" y="387.951" style="fill:#FB0125;" width="99.045" height="32.275"/>
<path style="fill:#E60120;" d="M322.707,438.301H189.292c-2.597,0-4.702-2.106-4.702-4.702v-59.026c0-2.597,2.106-4.702,4.702-4.702
	h133.415c2.597,0,4.702,2.106,4.702,4.702v59.026C327.409,436.197,325.304,438.301,322.707,438.301z"/>
<rect x="202.663" y="387.951" style="fill:#FB0125;" width="98.843" height="32.275"/>
<path style="fill:#E60120;" d="M499.322,438.301H365.908c-2.597,0-4.702-2.106-4.702-4.702v-59.026c0-2.597,2.106-4.702,4.702-4.702
	h133.415c2.597,0,4.702,2.106,4.702,4.702v59.026C504.024,436.197,501.919,438.301,499.322,438.301z"/>
<rect x="379.284" y="387.951" style="fill:#FB0125;" width="98.928" height="32.275"/>
<path style="fill:#E60120;" d="M240.799,142.13H107.385c-2.597,0-4.702-2.106-4.702-4.702V78.401c0-2.597,2.106-4.702,4.702-4.702
	h133.415c2.597,0,4.702,2.106,4.702,4.702v59.026C245.502,140.024,243.397,142.13,240.799,142.13z"/>
<rect x="120.76" y="91.772" style="fill:#FB0125;" width="99.162" height="32.275"/>
<path style="fill:#CC111E;" d="M240.8,73.699h-25.709c2.597,0,4.702,2.106,4.702,4.702v59.026c0,2.597-2.106,4.702-4.702,4.702
	H240.8c2.597,0,4.702-2.106,4.702-4.702V78.401C245.502,75.804,243.397,73.699,240.8,73.699z"/>
<path style="fill:#E60120;" d="M354.126,73.699h63.288c2.597,0,4.702,2.106,4.702,4.702v59.026c0,2.597-2.106,4.702-4.702,4.702H284
	c-2.597,0-4.702-2.106-4.702-4.702V78.401c0-2.597,2.106-4.702,4.702-4.702h43.409H354.126z"/>
<rect x="297.381" y="91.772" style="fill:#FB0125;" width="99.035" height="32.275"/>
<path style="fill:#E60120;" d="M240.799,340.905H107.385c-2.597,0-4.702-2.106-4.702-4.702v-59.026c0-2.597,2.106-4.702,4.702-4.702
	h133.415c2.597,0,4.702,2.106,4.702,4.702v59.026C245.502,338.8,243.397,340.905,240.799,340.905z"/>
<rect x="120.76" y="290.554" style="fill:#FB0125;" width="99.077" height="32.275"/>
<path style="fill:#E60120;" d="M417.415,340.905H284c-2.597,0-4.702-2.106-4.702-4.702v-59.026c0-2.597,2.106-4.702,4.702-4.702
	h133.415c2.597,0,4.702,2.106,4.702,4.702v59.026C422.117,338.8,420.011,340.905,417.415,340.905z"/>
<rect x="297.381" y="290.554" style="fill:#FB0125;" width="99.056" height="32.275"/>
<path style="fill:#E60120;" d="M499.322,73.699h-38.707c-2.597,0-4.702,2.106-4.702,4.702v59.026c0,2.597,2.106,4.702,4.702,4.702
	h38.707c2.597,0,4.702-2.106,4.702-4.702V78.401C504.024,75.804,501.919,73.699,499.322,73.699z"/>
<rect x="473.991" y="91.772" style="fill:#FB0125;" width="4.325" height="32.275"/>
<path style="fill:#E60120;" d="M499.322,272.474h-38.707c-2.597,0-4.702,2.106-4.702,4.702v59.026c0,2.597,2.106,4.702,4.702,4.702
	h38.707c2.597,0,4.702-2.106,4.702-4.702v-59.026C504.024,274.58,501.919,272.474,499.322,272.474z"/>
<rect x="473.991" y="290.554" style="fill:#FB0125;" width="4.325" height="32.275"/>
<path style="fill:#E60120;" d="M7.976,78.401v59.026c0,2.597,2.106,4.702,4.702,4.702h51.507c2.597,0,4.702-2.106,4.702-4.702
	V78.401c0-2.597-2.106-4.702-4.702-4.702H12.678C10.081,73.699,7.976,75.804,7.976,78.401z"/>
<rect x="26.053" y="91.772" style="fill:#FB0125;" width="17.078" height="32.275"/>
<path style="fill:#E60120;" d="M7.976,277.177v59.026c0,2.597,2.106,4.702,4.702,4.702h51.507c2.597,0,4.702-2.106,4.702-4.702
	v-59.026c0-2.597-2.106-4.702-4.702-4.702H12.678C10.081,272.474,7.976,274.58,7.976,277.177z"/>
<rect x="26.053" y="290.554" style="fill:#FB0125;" width="17.078" height="32.275"/>
<g>
	<path style="fill:#CC111E;" d="M240.8,272.474h-25.709c2.597,0,4.702,2.106,4.702,4.702v59.026c0,2.597-2.106,4.702-4.702,4.702
		H240.8c2.597,0,4.702-2.106,4.702-4.702v-59.026C245.502,274.58,243.397,272.474,240.8,272.474z"/>
	<path style="fill:#CC111E;" d="M64.14,73.699H38.431c2.597,0,4.702,2.106,4.702,4.702v59.026c0,2.597-2.106,4.702-4.702,4.702
		H64.14c2.597,0,4.702-2.106,4.702-4.702V78.401C68.842,75.804,66.737,73.699,64.14,73.699z"/>
	<path style="fill:#CC111E;" d="M64.14,272.474H38.431c2.597,0,4.702,2.106,4.702,4.702v59.026c0,2.597-2.106,4.702-4.702,4.702
		H64.14c2.597,0,4.702-2.106,4.702-4.702v-59.026C68.842,274.58,66.737,272.474,64.14,272.474z"/>
	<path style="fill:#CC111E;" d="M417.415,272.474h-25.709c2.597,0,4.702,2.106,4.702,4.702v59.026c0,2.597-2.106,4.702-4.702,4.702
		h25.709c2.597,0,4.702-2.106,4.702-4.702v-59.026C422.117,274.58,420.011,272.474,417.415,272.474z"/>
	<path style="fill:#CC111E;" d="M499.322,173.086h-25.709c2.597,0,4.702,2.106,4.702,4.702v59.026c0,2.597-2.106,4.702-4.702,4.702
		h25.709c2.597,0,4.702-2.106,4.702-4.702v-59.026C504.024,175.192,501.919,173.086,499.322,173.086z"/>
	<path style="fill:#CC111E;" d="M499.322,73.699h-25.709c2.597,0,4.702,2.106,4.702,4.702v59.026c0,2.597-2.106,4.702-4.702,4.702
		h25.709c2.597,0,4.702-2.106,4.702-4.702V78.401C504.024,75.804,501.919,73.699,499.322,73.699z"/>
	<path style="fill:#CC111E;" d="M417.412,73.699h-25.704c2.597,0,4.702,2.106,4.702,4.702v59.026c0,2.597-2.106,4.702-4.702,4.702
		h25.704c2.597,0,4.702-2.106,4.702-4.702V78.401C422.115,75.804,420.009,73.699,417.412,73.699z"/>
	<path style="fill:#CC111E;" d="M146.092,369.871h-25.709c2.597,0,4.702,2.106,4.702,4.702V433.6c0,2.597-2.106,4.702-4.702,4.702
		h25.709c2.597,0,4.702-2.106,4.702-4.702v-59.026C150.794,371.976,148.689,369.871,146.092,369.871z"/>
	<path style="fill:#CC111E;" d="M322.71,369.871h-25.709c2.597,0,4.702,2.106,4.702,4.702V433.6c0,2.597-2.106,4.702-4.702,4.702
		h25.709c2.597,0,4.702-2.106,4.702-4.702v-59.026C327.412,371.976,325.307,369.871,322.71,369.871z"/>
	<path style="fill:#CC111E;" d="M499.322,369.871h-25.709c2.597,0,4.702,2.106,4.702,4.702V433.6c0,2.597-2.106,4.702-4.702,4.702
		h25.709c2.597,0,4.702-2.106,4.702-4.702v-59.026C504.024,371.976,501.919,369.871,499.322,369.871z"/>
	<path style="fill:#CC111E;" d="M499.322,272.474h-25.709c2.597,0,4.702,2.106,4.702,4.702v59.026c0,2.597-2.106,4.702-4.702,4.702
		h25.709c2.597,0,4.702-2.106,4.702-4.702v-59.026C504.024,274.58,501.919,272.474,499.322,272.474z"/>
</g>
<g>
	<path style="fill:#1A1A1A;" d="M12.678,249.493h133.414c6.991,0,12.678-5.687,12.678-12.677V177.79
		c0-6.991-5.687-12.678-12.678-12.678H12.678C5.687,165.111,0,170.798,0,177.789v59.026C0,243.806,5.687,249.493,12.678,249.493z
		 M15.951,181.062h126.867v52.48H15.951V181.062z"/>
	<path style="fill:#1A1A1A;" d="M322.707,165.111H189.292c-6.991,0-12.678,5.687-12.678,12.678v59.026
		c0,6.99,5.687,12.677,12.678,12.677h133.415c6.991,0,12.678-5.687,12.678-12.677v-59.026
		C335.385,170.798,329.698,165.111,322.707,165.111z M319.434,233.542H192.565v-52.48h126.868V233.542z"/>
	<path style="fill:#1A1A1A;" d="M499.322,165.111H365.908c-6.991,0-12.678,5.687-12.678,12.678v59.026
		c0,6.99,5.687,12.677,12.678,12.677h133.414c6.991,0,12.678-5.687,12.678-12.677v-59.026
		C512,170.798,506.313,165.111,499.322,165.111z M496.049,233.542H369.181v-52.48h126.867v52.48H496.049z"/>
	<path style="fill:#1A1A1A;" d="M146.091,361.895H12.678C5.687,361.895,0,367.583,0,374.573v15.062c0,4.405,3.571,7.976,7.976,7.976
		s7.976-3.571,7.976-7.976v-11.789h126.867v52.48H15.951v-11.094c0-4.405-3.571-7.976-7.976-7.976S0,414.827,0,419.231v14.368
		c0,6.991,5.687,12.678,12.678,12.678h133.414c6.991,0,12.678-5.687,12.678-12.678v-59.026
		C158.769,367.583,153.082,361.895,146.091,361.895z"/>
	<path style="fill:#1A1A1A;" d="M322.707,361.895H189.292c-6.991,0-12.678,5.687-12.678,12.678v59.026
		c0,6.991,5.687,12.678,12.678,12.678h133.415c6.991,0,12.678-5.687,12.678-12.678v-59.026
		C335.385,367.583,329.698,361.895,322.707,361.895z M319.434,430.326H192.565v-52.48h126.868V430.326z"/>
	<path style="fill:#1A1A1A;" d="M499.322,361.895H365.908c-6.991,0-12.678,5.687-12.678,12.678v59.026
		c0,6.991,5.687,12.678,12.678,12.678h133.414c6.991,0,12.678-5.687,12.678-12.678v-59.026
		C512,367.583,506.313,361.895,499.322,361.895z M496.049,430.326H369.181v-52.48h126.867v52.48H496.049z"/>
	<path style="fill:#1A1A1A;" d="M107.385,150.105h133.415c6.991,0,12.678-5.687,12.678-12.678V78.401
		c0-6.991-5.687-12.678-12.678-12.678H107.385c-6.99,0-12.677,5.687-12.677,12.678v59.026
		C94.708,144.418,100.395,150.105,107.385,150.105z M110.659,81.674h126.867v52.48H110.659V81.674z"/>
	<path style="fill:#1A1A1A;" d="M284,150.105h133.415c6.991,0,12.678-5.687,12.678-12.678V78.401
		c0-6.991-5.687-12.678-12.678-12.678h-25.706c-4.405,0-7.976,3.571-7.976,7.976s3.571,7.976,7.976,7.976h22.432v52.48H287.274
		v-52.48h73.605c4.405,0,7.976-3.571,7.976-7.976c0-4.405-3.571-7.976-7.976-7.976h-76.878c-6.991,0-12.678,5.687-12.678,12.678
		v59.026C271.323,144.418,277.01,150.105,284,150.105z"/>
	<path style="fill:#1A1A1A;" d="M107.385,264.499c-6.99,0-12.677,5.687-12.677,12.678v59.026c0,6.991,5.687,12.678,12.677,12.678
		h133.415c6.991,0,12.678-5.687,12.678-12.678v-59.026c0-6.991-5.687-12.678-12.678-12.678H107.385z M237.526,332.93H110.659v-52.48
		h126.867V332.93z"/>
	<path style="fill:#1A1A1A;" d="M271.323,277.177v59.026c0,6.991,5.687,12.678,12.678,12.678h133.415
		c6.991,0,12.678-5.687,12.678-12.678v-59.026c0-6.991-5.687-12.678-12.678-12.678H284.001
		C277.01,264.499,271.323,270.186,271.323,277.177z M287.274,280.45h126.868v52.48H287.274V280.45z"/>
	<path style="fill:#1A1A1A;" d="M499.322,65.723h-38.707c-6.991,0-12.678,5.687-12.678,12.678v59.026
		c0,6.991,5.687,12.678,12.678,12.678h38.707c6.991,0,12.678-5.687,12.678-12.678V78.401C512,71.41,506.313,65.723,499.322,65.723z
		 M496.049,134.154h-32.16v-52.48h32.161L496.049,134.154L496.049,134.154z"/>
	<path style="fill:#1A1A1A;" d="M499.322,264.499h-38.707c-6.991,0-12.678,5.687-12.678,12.678v59.026
		c0,6.991,5.687,12.678,12.678,12.678h38.707c6.991,0,12.678-5.687,12.678-12.678v-59.026
		C512,270.186,506.313,264.499,499.322,264.499z M496.049,332.93h-32.16v-52.48h32.161L496.049,332.93L496.049,332.93z"/>
	<path style="fill:#1A1A1A;" d="M12.678,150.105h51.507c6.991,0,12.678-5.687,12.678-12.678V78.401
		c0-6.991-5.687-12.678-12.678-12.678H12.678C5.687,65.723,0,71.41,0,78.401v59.026C0,144.418,5.687,150.105,12.678,150.105z
		 M15.951,81.674h44.961v52.48H15.951V81.674z"/>
	<path style="fill:#1A1A1A;" d="M12.678,348.881h51.507c6.991,0,12.678-5.687,12.678-12.678v-59.026
		c0-6.991-5.687-12.678-12.678-12.678H12.678C5.687,264.499,0,270.186,0,277.177v59.026C0,343.193,5.687,348.881,12.678,348.881z
		 M15.951,280.45h44.961v52.48H15.951V280.45z"/>
</g>
<g>
</g>
<g>
</g>
<g>
</g>
<g>
</g>
<g>
</g>
<g>
</g>
<g>
</g>
<g>
</g>
<g>
</g>
<g>
</g>
<g>
</g>
<g>
</g>
<g>
</g>
<g>
</g>
<g>
</g>
</svg>
