<svg xmlns="http://www.w3.org/2000/svg" version="1.1" xmlns:xlink="http://www.w3.org/1999/xlink" xmlns:svgjs="http://svgjs.com/svgjs" width="1920" height="1080" preserveAspectRatio="none" viewBox="0 0 1920 1080"><g mask="url(&quot;#SvgjsMask1070&quot;)" fill="none"><rect width="1920" height="1080" x="0" y="0" fill="#0e2a47"></rect><g transform="translate(0, 0)" stroke-linecap="round"><path d="M400 319.1 L400 760.9" stroke-width="15" stroke="#3a7cc3"></path><path d="M420 505.15 L420 574.85" stroke-width="15" stroke="#dd1133"></path><path d="M440 263.02 L440 816.98" stroke-width="15" stroke="#dd1133"></path><path d="M460 259.38 L460 820.63" stroke-width="15" stroke="#3a7cc3"></path><path d="M480 494.26 L480 585.74" stroke-width="15" stroke="#3a7cc3"></path><path d="M500 463.08 L500 616.92" stroke-width="15" stroke="#dd1133"></path><path d="M520 267.5 L520 812.5" stroke-width="15" stroke="#3a7cc3"></path><path d="M540 340.1 L540 739.9" stroke-width="15" stroke="#3a7cc3"></path><path d="M560 251.51 L560 828.49" stroke-width="15" stroke="#dd1133"></path><path d="M580 287.99 L580 792.01" stroke-width="15" stroke="#dd1133"></path><path d="M600 493.82 L600 586.18" stroke-width="15" stroke="#3a7cc3"></path><path d="M620 340.67 L620 739.33" stroke-width="15" stroke="#3a7cc3"></path><path d="M640 460.45 L640 619.54" stroke-width="15" stroke="#3a7cc3"></path><path d="M660 240.26 L660 839.74" stroke-width="15" stroke="#3a7cc3"></path><path d="M680 472.48 L680 607.52" stroke-width="15" stroke="#3a7cc3"></path><path d="M700 321.46 L700 758.54" stroke-width="15" stroke="#3a7cc3"></path><path d="M720 439.88 L720 640.12" stroke-width="15" stroke="#dd1133"></path><path d="M740 379.96 L740 700.04" stroke-width="15" stroke="#3a7cc3"></path><path d="M760 248.4 L760 831.6" stroke-width="15" stroke="#dd1133"></path><path d="M780 292.96 L780 787.04" stroke-width="15" stroke="#dd1133"></path><path d="M800 454.06 L800 625.93" stroke-width="15" stroke="#dd1133"></path><path d="M820 316.68 L820 763.32" stroke-width="15" stroke="#3a7cc3"></path><path d="M840 400.87 L840 679.13" stroke-width="15" stroke="#3a7cc3"></path><path d="M860 273.6 L860 806.4" stroke-width="15" stroke="#dd1133"></path><path d="M880 468.55 L880 611.45" stroke-width="15" stroke="#dd1133"></path><path d="M900 400.65 L900 679.35" stroke-width="15" stroke="#3a7cc3"></path><path d="M920 398.75 L920 681.25" stroke-width="15" stroke="#3a7cc3"></path><path d="M940 391.38 L940 688.63" stroke-width="15" stroke="#3a7cc3"></path><path d="M960 430.1 L960 649.9" stroke-width="15" stroke="#3a7cc3"></path><path d="M980 465.86 L980 614.14" stroke-width="15" stroke="#dd1133"></path><path d="M1000 453.74 L1000 626.26" stroke-width="15" stroke="#3a7cc3"></path><path d="M1020 468.32 L1020 611.67" stroke-width="15" stroke="#dd1133"></path><path d="M1040 314.91 L1040 765.09" stroke-width="15" stroke="#dd1133"></path><path d="M1060 419.79 L1060 660.21" stroke-width="15" stroke="#dd1133"></path><path d="M1080 357.52 L1080 722.48" stroke-width="15" stroke="#3a7cc3"></path><path d="M1100 459.31 L1100 620.69" stroke-width="15" stroke="#3a7cc3"></path><path d="M1120 255.01 L1120 824.99" stroke-width="15" stroke="#dd1133"></path><path d="M1140 278.6 L1140 801.4" stroke-width="15" stroke="#dd1133"></path><path d="M1160 343.25 L1160 736.75" stroke-width="15" stroke="#dd1133"></path><path d="M1180 455.36 L1180 624.64" stroke-width="15" stroke="#3a7cc3"></path><path d="M1200 288.47 L1200 791.53" stroke-width="15" stroke="#3a7cc3"></path><path d="M1220 363.6 L1220 716.4" stroke-width="15" stroke="#dd1133"></path><path d="M1240 289.5 L1240 790.5" stroke-width="15" stroke="#dd1133"></path><path d="M1260 380.82 L1260 699.18" stroke-width="15" stroke="#3a7cc3"></path><path d="M1280 295.74 L1280 784.26" stroke-width="15" stroke="#3a7cc3"></path><path d="M1300 465.88 L1300 614.12" stroke-width="15" stroke="#dd1133"></path><path d="M1320 260.12 L1320 819.88" stroke-width="15" stroke="#dd1133"></path><path d="M1340 403.63 L1340 676.37" stroke-width="15" stroke="#3a7cc3"></path><path d="M1360 261.59 L1360 818.41" stroke-width="15" stroke="#3a7cc3"></path><path d="M1380 280.57 L1380 799.42" stroke-width="15" stroke="#3a7cc3"></path><path d="M1400 476.09 L1400 603.91" stroke-width="15" stroke="#dd1133"></path><path d="M1420 468.56 L1420 611.44" stroke-width="15" stroke="#dd1133"></path><path d="M1440 281.01 L1440 798.99" stroke-width="15" stroke="#dd1133"></path><path d="M1460 296.95 L1460 783.05" stroke-width="15" stroke="#dd1133"></path><path d="M1480 374.26 L1480 705.74" stroke-width="15" stroke="#3a7cc3"></path><path d="M1500 325.87 L1500 754.13" stroke-width="15" stroke="#dd1133"></path><path d="M1520 417.32 L1520 662.67" stroke-width="15" stroke="#3a7cc3"></path></g></g><defs><mask id="SvgjsMask1070"><rect width="1920" height="1080" fill="#ffffff"></rect></mask></defs></svg>