<svg width="73" height="12" viewBox="0 0 73 12" fill="none" xmlns="http://www.w3.org/2000/svg">
<path fill-rule="evenodd" clip-rule="evenodd" d="M6.50001 9.75005L3.60691 11.271C3.26064 11.4531 2.83237 11.32 2.65033 10.9737C2.57783 10.8358 2.55282 10.6779 2.57915 10.5243L3.13169 7.30282L0.791118 5.02133C0.510984 4.74826 0.505252 4.29981 0.778315 4.01967C0.887051 3.90812 1.02953 3.83553 1.18369 3.81313L4.41827 3.34312L5.86482 0.412082C6.03796 0.0612772 6.46269 -0.0827546 6.8135 0.0903779C6.95319 0.15932 7.06626 0.27239 7.1352 0.412082L8.58175 3.34312L11.8163 3.81313C12.2035 3.86938 12.4717 4.22882 12.4155 4.61596C12.3931 4.77012 12.3205 4.91259 12.2089 5.02133L9.86834 7.30282L10.4209 10.5243C10.487 10.9099 10.228 11.2761 9.84247 11.3422C9.68893 11.3685 9.531 11.3435 9.39311 11.271L6.50001 9.75005Z" fill="#FFA800"/>
<path fill-rule="evenodd" clip-rule="evenodd" d="M21.5 9.75005L18.6069 11.271C18.2606 11.4531 17.8324 11.32 17.6503 10.9737C17.5778 10.8358 17.5528 10.6779 17.5792 10.5243L18.1317 7.30282L15.7911 5.02133C15.511 4.74826 15.5053 4.29981 15.7783 4.01967C15.8871 3.90812 16.0295 3.83553 16.1837 3.81313L19.4183 3.34312L20.8648 0.412082C21.038 0.0612772 21.4627 -0.0827546 21.8135 0.0903778C21.9532 0.15932 22.0663 0.27239 22.1352 0.412082L23.5818 3.34312L26.8163 3.81313C27.2035 3.86938 27.4717 4.22882 27.4155 4.61596C27.3931 4.77012 27.3205 4.91259 27.2089 5.02133L24.8683 7.30282L25.4209 10.5243C25.487 10.9099 25.228 11.2761 24.8425 11.3422C24.6889 11.3685 24.531 11.3435 24.3931 11.271L21.5 9.75005Z" fill="#FFA800"/>
<path fill-rule="evenodd" clip-rule="evenodd" d="M36.5 9.75005L33.6069 11.271C33.2606 11.4531 32.8324 11.32 32.6503 10.9737C32.5778 10.8358 32.5528 10.6779 32.5792 10.5243L33.1317 7.30282L30.7911 5.02133C30.511 4.74826 30.5053 4.29981 30.7783 4.01967C30.8871 3.90812 31.0295 3.83553 31.1837 3.81313L34.4183 3.34312L35.8648 0.412082C36.038 0.0612772 36.4627 -0.0827546 36.8135 0.0903778C36.9532 0.15932 37.0663 0.27239 37.1352 0.412082L38.5818 3.34312L41.8163 3.81313C42.2035 3.86938 42.4717 4.22882 42.4155 4.61596C42.3931 4.77012 42.3205 4.91259 42.2089 5.02133L39.8683 7.30282L40.4209 10.5243C40.487 10.9099 40.228 11.2761 39.8425 11.3422C39.6889 11.3685 39.531 11.3435 39.3931 11.271L36.5 9.75005Z" fill="#FFA800"/>
<path fill-rule="evenodd" clip-rule="evenodd" d="M51.5 9.75005L48.6069 11.271C48.2606 11.4531 47.8324 11.32 47.6503 10.9737C47.5778 10.8358 47.5528 10.6779 47.5792 10.5243L48.1317 7.30282L45.7911 5.02133C45.511 4.74826 45.5053 4.29981 45.7783 4.01967C45.8871 3.90812 46.0295 3.83553 46.1837 3.81313L49.4183 3.34312L50.8648 0.412082C51.038 0.0612772 51.4627 -0.0827546 51.8135 0.0903778C51.9532 0.15932 52.0663 0.27239 52.1352 0.412082L53.5818 3.34312L56.8163 3.81313C57.2035 3.86938 57.4717 4.22882 57.4155 4.61596C57.3931 4.77012 57.3205 4.91259 57.2089 5.02133L54.8683 7.30282L55.4209 10.5243C55.487 10.9099 55.228 11.2761 54.8425 11.3422C54.6889 11.3685 54.531 11.3435 54.3931 11.271L51.5 9.75005Z" fill="#FFA800"/>
<path fill-rule="evenodd" clip-rule="evenodd" d="M66.5 9.75005L63.6069 11.271C63.2606 11.4531 62.8324 11.32 62.6503 10.9737C62.5778 10.8358 62.5528 10.6779 62.5792 10.5243L63.1317 7.30282L60.7911 5.02133C60.511 4.74826 60.5053 4.29981 60.7783 4.01967C60.8871 3.90812 61.0295 3.83553 61.1837 3.81313L64.4183 3.34312L65.8648 0.412082C66.038 0.0612772 66.4627 -0.0827546 66.8135 0.0903778C66.9532 0.15932 67.0663 0.27239 67.1352 0.412082L68.5818 3.34312L71.8163 3.81313C72.2035 3.86938 72.4717 4.22882 72.4155 4.61596C72.3931 4.77012 72.3205 4.91259 72.2089 5.02133L69.8683 7.30282L70.4209 10.5243C70.487 10.9099 70.228 11.2761 69.8425 11.3422C69.6889 11.3685 69.531 11.3435 69.3931 11.271L66.5 9.75005Z" fill="#FFA800"/>
</svg>
