<svg width="40" height="40" viewBox="0 0 40 40" fill="none" xmlns="http://www.w3.org/2000/svg">
<path d="M36.5517 13.7931C36.5517 13.7931 33.7069 14.1379 32.4138 9.65517C30.6297 3.47 26.6654 0 20 0C13.3346 0 9.37035 3.47 7.58621 9.65517C6.29311 14.1379 3.44828 13.7931 3.44828 13.7931C3.44828 13.7931 1.89656 17.2414 5.51725 19.3103H4.13794C4.13794 19.3103 4.97639 23.4977 9.19854 24.0669C9.73518 25.2794 11.4139 26.8966 16.5517 26.8966H20H23.4483C28.5861 26.8966 30.2648 25.2793 30.8015 24.0669C35.0236 23.4977 35.8621 19.3103 35.8621 19.3103H34.4828C38.1035 17.2414 36.5517 13.7931 36.5517 13.7931Z" fill="#9D6E48"/>
<path d="M26.8966 13.7931C18.3621 9.48276 18.8793 1.89655 20 0C13.3347 0 9.37035 3.47 7.58621 9.65517C6.29311 14.1379 3.44828 13.7931 3.44828 13.7931C3.44828 13.7931 1.89656 17.2414 5.51725 19.3103H4.13794C4.13794 19.3103 4.97639 23.4977 9.19854 24.0669C9.73518 25.2794 11.4139 26.8966 16.5517 26.8966L26.8966 13.7931Z" fill="#8D5F3D"/>
<path d="M32.7911 37.6577L31.999 31.7173C31.8299 30.4491 30.9725 29.3787 29.7717 28.9369L25.081 27.211C24.5178 27.0233 24.1379 26.4962 24.1379 25.9025V23.6782L27.1087 22.4403C28.6508 21.7978 29.6551 20.2912 29.6551 18.6207V17.931C30.7978 17.931 31.7241 17.0047 31.7241 15.8621C31.7241 14.7194 30.7978 13.7931 29.6551 13.7931V12.4138C29.6551 10.5093 28.1113 8.96552 26.2069 8.96552H13.7931C11.8886 8.96552 10.3448 10.5094 10.3448 12.4138V13.7931C9.20213 13.7931 8.27584 14.7194 8.27584 15.8621C8.27584 17.0047 9.20213 17.931 10.3448 17.931V18.6207C10.3448 20.2912 11.3492 21.7978 12.8912 22.4403L15.862 23.6782V25.9024C15.862 26.4961 15.4821 27.0232 14.9189 27.2109L10.2283 28.9368C9.02748 29.3786 8.17006 30.449 8.00092 31.7172L7.20886 37.6576C7.04351 38.8979 8.00834 40 9.25963 40H20H30.7403C31.9916 40 32.9565 38.8979 32.7911 37.6577Z" fill="#F6B47B"/>
<path d="M15.8621 23.7069V25.9024C15.8621 26.3932 15.602 26.8379 15.1938 27.0835C20.6898 28.0331 23.8312 24.0834 24.1166 23.7068H15.8621V23.7069Z" fill="#E2A071"/>
<path d="M29.6551 13.7931V12.4138C29.6551 10.5093 28.1112 8.96552 26.2069 8.96552H13.7931C11.8886 8.96552 10.3448 10.5094 10.3448 12.4138V13.7931C9.20211 13.7931 8.27582 14.7194 8.27582 15.8621C8.27582 17.0047 9.20211 17.931 10.3448 17.931V18.6207C10.3448 20.2912 11.3492 21.7978 12.8912 22.4403L17.3473 24.2971C18.1878 24.6473 19.0894 24.8276 19.9999 24.8276C20.9104 24.8276 21.8119 24.6473 22.6524 24.2971L27.1087 22.4403C28.6507 21.7978 29.6551 20.2912 29.6551 18.6207V17.931C30.7978 17.931 31.7241 17.0047 31.7241 15.8621C31.7241 14.7194 30.7978 13.7931 29.6551 13.7931Z" fill="#FDC88E"/>
<path d="M15.1724 16.5517C14.7931 16.5517 14.4827 16.2414 14.4827 15.8621V15.1724C14.4827 14.7931 14.7931 14.4828 15.1724 14.4828C15.5517 14.4828 15.862 14.7931 15.862 15.1724V15.8621C15.862 16.2414 15.5517 16.5517 15.1724 16.5517Z" fill="#623F33"/>
<path d="M20 21.3981C18.7739 21.3981 17.627 21.0964 16.8535 20.5701C16.5386 20.356 16.4567 19.9269 16.6713 19.6121C16.8851 19.2976 17.3145 19.2157 17.6293 19.4299C18.1715 19.7986 19.0578 20.0189 20 20.0189C20.9423 20.0189 21.8285 19.7986 22.3707 19.4299C22.6862 19.2151 23.1146 19.2973 23.3287 19.6121C23.5432 19.9269 23.4614 20.356 23.1466 20.5701C22.3731 21.0964 21.2261 21.3981 20 21.3981Z" fill="#E2A071"/>
<path d="M27.917 28.1604L25.4353 32.1309C25.0572 32.7358 24.3942 33.1033 23.6808 33.1033H16.3191C15.6058 33.1033 14.9427 32.7358 14.5646 32.1309L12.0831 28.1604C11.8838 27.8415 11.4658 27.7411 11.1434 27.9345L8.87808 29.2937C8.54731 29.4922 8.4436 29.9235 8.64808 30.2506L11.7241 35.1723H28.2758L31.3519 30.2505C31.5564 29.9234 31.4527 29.4922 31.1219 29.2937L28.8565 27.9344C28.5342 27.7411 28.1162 27.8416 27.917 28.1604Z" fill="#F23F44"/>
<path d="M28.2758 35.1724H11.7241V40H28.2758V35.1724Z" fill="#FF4F4F"/>
<path d="M13.9651 21.0106C13.4063 20.4115 13.1035 19.6209 13.1035 18.8016V11.4859C15.4994 13.165 18.8138 14.4781 25 14.8276L24.3966 12.7586C24.3966 12.7586 20.107 10.3471 18.0172 8.96552H13.7931C13.5567 8.96552 13.3263 8.99034 13.1034 9.03569V9.035C13.0503 9.04578 12.9978 9.05802 12.9456 9.07121C12.9408 9.07241 12.9358 9.07328 12.931 9.07448C12.9298 9.07483 12.9287 9.07578 12.9275 9.07612C11.4422 9.46026 10.3448 10.8084 10.3448 12.4138V13.7931C9.20211 13.7931 8.27582 14.7194 8.27582 15.8621C8.27582 17.0047 9.20211 17.931 10.3448 17.931V18.6207C10.3448 20.2912 11.3492 21.7978 12.8912 22.4403L17.3472 24.2971C17.5653 24.3879 17.7879 24.4662 18.0133 24.5341C16.044 23.0934 14.7331 21.8341 13.9651 21.0106Z" fill="#F6B47B"/>
<path d="M24.8276 16.5517C24.4483 16.5517 24.1379 16.2414 24.1379 15.8621V15.1724C24.1379 14.7931 24.4483 14.4828 24.8276 14.4828C25.2069 14.4828 25.5173 14.7931 25.5173 15.1724V15.8621C25.5173 16.2414 25.2069 16.5517 24.8276 16.5517Z" fill="#623F33"/>
<path d="M26.8966 13.7931L26.2069 12.4138C26.2069 12.4138 28.3891 13.7905 29.7414 13.7905V8.62069H13.4615C16.0673 11.1156 19.3162 13.7931 26.8966 13.7931Z" fill="#9D6E48"/>
<path d="M26.8965 13.7931C23.9989 12.3297 22.1456 10.4885 21.0041 8.62069H13.4614C16.0673 11.1156 19.3162 13.7931 26.8965 13.7931Z" fill="#8D5F3D"/>
</svg>
