<svg width="40" height="40" viewBox="0 0 40 40" fill="none" xmlns="http://www.w3.org/2000/svg">
<path d="M33.5024 37.6743L32.6294 30.6905C32.4976 29.6364 31.7723 28.7516 30.7645 28.4156L27.3984 27.2936C26.9362 27.1394 26.4291 27.2376 26.0726 27.5413L25.0811 27.2108C24.5179 27.023 24.138 26.496 24.138 25.9023V23.678L27.1087 22.4401C28.6507 21.7978 29.6551 20.2912 29.6551 18.6207V17.931C30.7978 17.931 31.7241 17.0047 31.7241 15.862C31.7241 15.3466 31.5352 14.8756 31.2234 14.5133C31.8088 12.3825 33.4543 5.64214 31.7241 2.75862L32.4137 0C32.4137 0 25.1724 0.172413 21.3793 1.37931L22.7586 0C22.7586 0 13.0603 0 11.0351 3.44767L11.0345 3.44827C11.0345 3.44827 7.58621 3.41956 7.58621 7.58619C7.58621 9.11119 8.43681 12.9191 8.80198 14.484C8.475 14.8499 8.27586 15.3326 8.27586 15.862C8.27586 17.0047 9.20215 17.931 10.3448 17.931V18.6207C10.3448 20.2911 11.3492 21.7977 12.8912 22.4403L15.862 23.6781V25.9024C15.862 26.4961 15.4821 27.0231 14.9189 27.2109L13.9274 27.5414C13.5709 27.2377 13.0639 27.1395 12.6016 27.2936L9.23551 28.4157C8.22767 28.7517 7.50233 29.6365 7.3706 30.6906L6.49767 37.6744C6.34328 38.9092 7.30612 39.9999 8.5506 39.9999H8.57H31.4299H31.4493C32.6938 39.9999 33.6567 38.9092 33.5024 37.6743Z" fill="#FFD7A3"/>
<path d="M24.1379 23.6781L15.862 23.6781V25.9024C15.862 26.3988 15.5874 26.8361 15.1709 27.0799C20.9549 28.0922 24.1379 23.6781 24.1379 23.6781Z" fill="#FDC88E"/>
<path d="M8.96555 15.1724C8.96555 15.1724 7.58624 9.52808 7.58624 7.58619C7.58624 3.41956 11.0345 3.44827 11.0345 3.44827L11.0351 3.44766C13.0604 0 22.7586 0 22.7586 0L21.3793 1.37931C25.1724 0.172413 32.4138 0 32.4138 0L31.7241 2.75861C33.7931 6.20688 31.0345 15.1724 31.0345 15.1724H8.96555Z" fill="#734A3E"/>
<path d="M22.7586 0C22.7586 0 13.0604 0 11.0351 3.44766L11.0345 3.44827C11.0345 3.44827 7.58624 3.41956 7.58624 7.58619C7.58624 9.52808 8.96555 15.1724 8.96555 15.1724C8.96555 15.1724 23.3047 8.76438 32.4138 0C32.4138 0 25.1724 0.172413 21.3793 1.37931L22.7586 0Z" fill="#623F33"/>
<path d="M29.6551 13.7931V12.4138C29.6551 10.5094 28.1113 8.96555 26.2069 8.96555H13.7931C11.8887 8.96555 10.3448 10.5094 10.3448 12.4138V13.7931C9.20217 13.7931 8.27588 14.7194 8.27588 15.8621C8.27588 17.0048 9.20217 17.931 10.3448 17.931V18.6207C10.3448 20.2911 11.3492 21.7978 12.8912 22.4403L17.3473 24.2971C18.1878 24.6473 19.0894 24.8276 19.9999 24.8276C20.9104 24.8276 21.8119 24.6472 22.6524 24.2971L27.1088 22.4403C28.6507 21.7978 29.6551 20.2912 29.6551 18.6207V17.931C30.7978 17.931 31.7241 17.0048 31.7241 15.8621C31.7241 14.7194 30.7978 13.7931 29.6551 13.7931Z" fill="#FFE1B2"/>
<path d="M15.1724 16.5517C14.7931 16.5517 14.4828 16.2413 14.4828 15.862V15.1724C14.4828 14.793 14.7931 14.4827 15.1724 14.4827C15.5518 14.4827 15.8621 14.793 15.8621 15.1724V15.862C15.8621 16.2413 15.5518 16.5517 15.1724 16.5517Z" fill="#623F33"/>
<path d="M24.8275 16.5517C24.4482 16.5517 24.1379 16.2413 24.1379 15.862V15.1724C24.1379 14.793 24.4482 14.4827 24.8275 14.4827C25.2068 14.4827 25.5172 14.793 25.5172 15.1724V15.862C25.5172 16.2413 25.2068 16.5517 24.8275 16.5517Z" fill="#623F33"/>
<path d="M20 21.3982C18.7739 21.3982 17.627 21.0965 16.8535 20.5702C16.5386 20.3561 16.4567 19.927 16.6713 19.6122C16.8851 19.2977 17.3145 19.2158 17.6293 19.4301C18.1715 19.7988 19.0578 20.019 20 20.019C20.9422 20.019 21.8285 19.7988 22.3707 19.4301C22.6862 19.2152 23.1146 19.2974 23.3287 19.6122C23.5432 19.927 23.4614 20.3561 23.1466 20.5702C22.3731 21.0965 21.2261 21.3982 20 21.3982Z" fill="#E4B07B"/>
<path d="M33.5024 37.6743L32.6294 30.6905C32.4977 29.6364 31.7723 28.7516 30.7645 28.4156L27.3984 27.2936C26.8122 27.0981 26.1527 27.3068 25.8216 27.8285C24.599 29.7548 22.4503 31.0343 20 31.0343C17.5496 31.0343 15.4009 29.7547 14.1784 27.8285C13.8473 27.3068 13.1878 27.0981 12.6016 27.2936L9.23551 28.4156C8.22767 28.7516 7.50233 29.6364 7.3706 30.6905L6.49767 37.6743C6.34328 38.9091 7.30621 39.9999 8.55069 39.9999H31.4494C32.6938 39.9999 33.6568 38.9091 33.5024 37.6743Z" fill="#00BEA4"/>
<path d="M7.94552 29.3248C7.63931 29.7125 7.43431 30.1808 7.3706 30.6906L6.49767 37.6744C6.34328 38.9093 7.30621 40 8.55069 40H12.4138V35.5114C12.4138 34.8479 12.1746 34.2067 11.7403 33.7051L7.94552 29.3248Z" fill="#00AB9A"/>
<path d="M32.0545 29.3248C32.3607 29.7125 32.5657 30.1808 32.6294 30.6906L33.5023 37.6744C33.6567 38.9093 32.6938 40 31.4493 40H27.5862V35.5114C27.5862 34.8479 27.8253 34.2067 28.2597 33.7051L32.0545 29.3248Z" fill="#00AB9A"/>
<path d="M13.9652 21.0106C13.4064 20.4115 13.1035 19.6209 13.1035 18.8016V10.9861C15.2986 10.8215 22.2194 10.223 26.207 8.96555H13.7931C13.5557 8.96555 13.3258 8.99322 13.1035 9.04149V9.03503C11.5296 9.3546 10.3448 10.7456 10.3448 12.4138V13.7931C9.20217 13.7931 8.27588 14.7194 8.27588 15.8621C8.27588 17.0048 9.20217 17.931 10.3448 17.931V18.6207C10.3448 20.2912 11.3492 21.7978 12.8912 22.4403L17.3472 24.2971C17.5653 24.3879 17.7879 24.4662 18.0134 24.534C16.0441 23.0934 14.7332 21.834 13.9652 21.0106Z" fill="#FFD7A3"/>
</svg>
