<svg width="18" height="18" viewBox="0 0 18 18" fill="none" xmlns="http://www.w3.org/2000/svg">
    <rect x="0.5" y="0.5" width="17" height="17" rx="2.5" fill="#979797" stroke="#1E3266" />
    <path
        d="M4.77845 10.1625C4.34853 9.81587 4.28105 9.18631 4.62773 8.75639V8.75639C4.9744 8.32647 5.60396 8.25899 6.03388 8.60566L8.36921 10.4888C8.79913 10.8355 8.86662 11.465 8.51994 11.895V11.895C8.17326 12.3249 7.5437 12.3924 7.11378 12.0457L4.77845 10.1625Z"
        fill="#D9D9D9" />
    <path
        d="M12.7677 4.76648C13.1224 4.34317 13.7531 4.28755 14.1764 4.64226V4.64226C14.5998 4.99698 14.6554 5.6277 14.3007 6.05101L9.0277 12.3438C8.67299 12.7671 8.04227 12.8227 7.61895 12.468V12.468C7.19564 12.1133 7.14002 11.4826 7.49474 11.0593L12.7677 4.76648Z"
        fill="#D9D9D9" />
</svg>